<mxfile host="app.diagrams.net" agent="Mozilla/5.0 (Macintosh; Intel Mac OS X 10_15_7) AppleWebKit/605.1.15 (KHTML, like Gecko) Version/18.3 Safari/605.1.15" version="26.0.16">
  <diagram name="Page-1" id="86bGsNq81XuQR4KEjIO_">
    <mxGraphModel dx="954" dy="647" grid="1" gridSize="10" guides="1" tooltips="1" connect="1" arrows="1" fold="1" page="1" pageScale="1" pageWidth="827" pageHeight="1169" math="0" shadow="0">
      <root>
        <mxCell id="0" />
        <mxCell id="1" parent="0" />
        <mxCell id="XYyXivrD9rUUquWim1YG-14" value="ATM" style="shape=umlFrame;whiteSpace=wrap;html=1;pointerEvents=0;" vertex="1" parent="1">
          <mxGeometry x="240" y="40" width="300" height="540" as="geometry" />
        </mxCell>
        <mxCell id="XYyXivrD9rUUquWim1YG-15" value="Check balance" style="ellipse;whiteSpace=wrap;html=1;" vertex="1" parent="1">
          <mxGeometry x="320" y="70" width="140" height="70" as="geometry" />
        </mxCell>
        <mxCell id="XYyXivrD9rUUquWim1YG-16" value="Deposit" style="ellipse;whiteSpace=wrap;html=1;" vertex="1" parent="1">
          <mxGeometry x="320" y="150" width="140" height="70" as="geometry" />
        </mxCell>
        <mxCell id="XYyXivrD9rUUquWim1YG-17" value="Transfer funds" style="ellipse;whiteSpace=wrap;html=1;" vertex="1" parent="1">
          <mxGeometry x="320" y="310" width="140" height="70" as="geometry" />
        </mxCell>
        <mxCell id="XYyXivrD9rUUquWim1YG-18" value="Withdraw" style="ellipse;whiteSpace=wrap;html=1;" vertex="1" parent="1">
          <mxGeometry x="320" y="230" width="140" height="70" as="geometry" />
        </mxCell>
        <mxCell id="XYyXivrD9rUUquWim1YG-19" value="Repairs" style="ellipse;whiteSpace=wrap;html=1;" vertex="1" parent="1">
          <mxGeometry x="320" y="470" width="140" height="70" as="geometry" />
        </mxCell>
        <mxCell id="XYyXivrD9rUUquWim1YG-20" value="Maintenance" style="ellipse;whiteSpace=wrap;html=1;" vertex="1" parent="1">
          <mxGeometry x="320" y="390" width="140" height="70" as="geometry" />
        </mxCell>
        <mxCell id="XYyXivrD9rUUquWim1YG-21" value="Customer" style="shape=umlActor;verticalLabelPosition=bottom;verticalAlign=top;html=1;" vertex="1" parent="1">
          <mxGeometry x="170" y="250" width="30" height="60" as="geometry" />
        </mxCell>
        <mxCell id="XYyXivrD9rUUquWim1YG-22" value="Technician" style="shape=umlActor;verticalLabelPosition=bottom;verticalAlign=top;html=1;" vertex="1" parent="1">
          <mxGeometry x="570" y="220" width="30" height="60" as="geometry" />
        </mxCell>
        <mxCell id="XYyXivrD9rUUquWim1YG-28" value="" style="endArrow=open;endFill=1;endSize=12;html=1;rounded=0;entryX=0;entryY=0.5;entryDx=0;entryDy=0;" edge="1" parent="1" target="XYyXivrD9rUUquWim1YG-15">
          <mxGeometry width="160" relative="1" as="geometry">
            <mxPoint x="200" y="270" as="sourcePoint" />
            <mxPoint x="360" y="279.5" as="targetPoint" />
          </mxGeometry>
        </mxCell>
        <mxCell id="XYyXivrD9rUUquWim1YG-29" value="" style="endArrow=open;endFill=1;endSize=12;html=1;rounded=0;entryX=1;entryY=0.5;entryDx=0;entryDy=0;" edge="1" parent="1" target="XYyXivrD9rUUquWim1YG-19">
          <mxGeometry width="160" relative="1" as="geometry">
            <mxPoint x="570" y="240" as="sourcePoint" />
            <mxPoint x="220" y="470" as="targetPoint" />
          </mxGeometry>
        </mxCell>
        <mxCell id="XYyXivrD9rUUquWim1YG-30" value="" style="endArrow=open;endFill=1;endSize=12;html=1;rounded=0;entryX=0;entryY=0.5;entryDx=0;entryDy=0;" edge="1" parent="1" target="XYyXivrD9rUUquWim1YG-17">
          <mxGeometry width="160" relative="1" as="geometry">
            <mxPoint x="200" y="270" as="sourcePoint" />
            <mxPoint x="230" y="480" as="targetPoint" />
          </mxGeometry>
        </mxCell>
        <mxCell id="XYyXivrD9rUUquWim1YG-31" value="" style="endArrow=open;endFill=1;endSize=12;html=1;rounded=0;entryX=0;entryY=0.5;entryDx=0;entryDy=0;exitX=1;exitY=0.3333333333333333;exitDx=0;exitDy=0;exitPerimeter=0;" edge="1" parent="1" source="XYyXivrD9rUUquWim1YG-21" target="XYyXivrD9rUUquWim1YG-18">
          <mxGeometry width="160" relative="1" as="geometry">
            <mxPoint x="200" y="280" as="sourcePoint" />
            <mxPoint x="240" y="490" as="targetPoint" />
          </mxGeometry>
        </mxCell>
        <mxCell id="XYyXivrD9rUUquWim1YG-32" value="" style="endArrow=open;endFill=1;endSize=12;html=1;rounded=0;entryX=0;entryY=0.5;entryDx=0;entryDy=0;" edge="1" parent="1" target="XYyXivrD9rUUquWim1YG-16">
          <mxGeometry width="160" relative="1" as="geometry">
            <mxPoint x="200" y="270" as="sourcePoint" />
            <mxPoint x="250" y="500" as="targetPoint" />
          </mxGeometry>
        </mxCell>
        <mxCell id="XYyXivrD9rUUquWim1YG-33" value="" style="endArrow=open;endFill=1;endSize=12;html=1;rounded=0;exitX=0;exitY=0.3333333333333333;exitDx=0;exitDy=0;exitPerimeter=0;entryX=1;entryY=0.5;entryDx=0;entryDy=0;" edge="1" parent="1" source="XYyXivrD9rUUquWim1YG-22" target="XYyXivrD9rUUquWim1YG-20">
          <mxGeometry width="160" relative="1" as="geometry">
            <mxPoint x="190" y="400" as="sourcePoint" />
            <mxPoint x="230" y="480" as="targetPoint" />
          </mxGeometry>
        </mxCell>
      </root>
    </mxGraphModel>
  </diagram>
</mxfile>
